<svg width="77" height="71" viewBox="0 0 77 71" fill="none" xmlns="http://www.w3.org/2000/svg">
<rect width="77" height="71" rx="13" fill="#B0B0B0"/>
<g clip-path="url(#clip0_1246_7423)">
<path d="M55.2384 21H24.3739C23.6149 21 23 21.5998 23 22.3402V48.1873C23 48.9276 23.6149 49.5274 24.3739 49.5274H55.2384C55.9974 49.5274 56.6123 48.9276 56.6123 48.1873V22.3402C56.6123 21.5998 55.9974 21 55.2384 21ZM53.8646 23.6804V37.3902L45.0426 32.1754C44.5523 31.8835 43.9263 31.9241 43.4776 32.2726L40.4252 34.6396L34.4008 29.3923C33.8717 28.933 33.0712 28.9384 32.5533 29.4085L25.7477 35.5555V23.6804H53.8646ZM25.7477 46.8471V39.2086L33.5006 32.2051L39.4585 37.3929C39.9571 37.8279 40.705 37.8495 41.2285 37.4415L44.4387 34.953L53.8535 40.5163L53.8674 40.4974V46.8471H25.7477V46.8471Z" fill="#D9D9D9"/>
<path d="M49.3772 31.6674C49.4326 31.6701 49.488 31.6728 49.5434 31.6728C50.247 31.6728 50.9173 31.4242 51.4491 30.9622C52.0224 30.4623 52.3604 29.7787 52.4047 29.033C52.449 28.2872 52.1914 27.5685 51.679 27.0119C51.1693 26.4526 50.4658 26.123 49.7013 26.0797C48.9368 26.0365 48.2 26.2878 47.6294 26.7876C47.0561 27.2875 46.7182 27.9711 46.6738 28.7169C46.6295 29.4626 46.8871 30.1813 47.3995 30.7379C47.912 31.2972 48.6127 31.6269 49.3772 31.6701V31.6674Z" fill="#D9D9D9"/>
</g>
<defs>
<clipPath id="clip0_1246_7423">
<rect width="35" height="30" fill="white" transform="translate(23 21)"/>
</clipPath>
</defs>
</svg>
