<svg width="12" height="12" viewBox="0 0 12 12" fill="none" xmlns="http://www.w3.org/2000/svg">
<path d="M6.97316 0.675686L7.69944 2.91242C7.82965 3.31463 8.20293 3.58662 8.62539 3.58662H10.9779C11.9212 3.58662 12.3147 4.79324 11.5508 5.34881L9.64971 6.73194C9.30827 6.98078 9.16649 7.42061 9.2967 7.81992L10.023 10.0567C10.3152 10.9537 9.28802 11.7002 8.52411 11.1446L6.62303 9.76151C6.28159 9.51266 5.81862 9.51266 5.47718 9.76151L3.5761 11.1446C2.8122 11.7002 1.78498 10.9537 2.07723 10.0567L2.80352 7.81992C2.93373 7.41771 2.79194 6.97789 2.4505 6.73194L0.549424 5.34881C-0.21448 4.79324 0.179045 3.58662 1.12235 3.58662H3.47483C3.89729 3.58662 4.27056 3.31463 4.40077 2.91242L5.12706 0.675686C5.41931 -0.221322 6.68959 -0.221322 6.97895 0.675686H6.97316Z" fill="#D4D4D4"/>
</svg>
