<svg width="12" height="12" viewBox="0 0 12 12" fill="none" xmlns="http://www.w3.org/2000/svg">
<path d="M6.83584 0.67565L7.56213 2.91238C7.69234 3.31459 8.06561 3.58659 8.48807 3.58659H10.8405C11.7839 3.58659 12.1774 4.79321 11.4135 5.34877L9.5124 6.7319C9.17096 6.98075 9.02917 7.42057 9.15938 7.81988L9.88567 10.0566C10.1779 10.9536 9.1507 11.7002 8.3868 11.1446L6.48572 9.76147C6.14428 9.51263 5.68131 9.51263 5.33986 9.76147L3.43879 11.1446C2.67488 11.7002 1.64766 10.9536 1.93991 10.0566L2.6662 7.81988C2.79641 7.41768 2.65463 6.97785 2.31319 6.7319L0.403427 5.34588C-0.360477 4.79031 0.0330495 3.58369 0.976355 3.58369H3.32883C3.75129 3.58369 4.12456 3.3117 4.25477 2.90949L4.98106 0.672756C5.27331 -0.224252 6.54359 -0.224252 6.83295 0.672756L6.83584 0.67565Z" fill="#FFBD2F"/>
</svg>
