<svg width="180" height="22" viewBox="0 0 180 22" fill="none" xmlns="http://www.w3.org/2000/svg">
<path d="M0 2.3913H4.8C10.0345 2.3913 12.5379 5.19848 12.5379 11C12.5379 16.8015 10.0345 19.5879 4.8 19.5879H0.868966C0.268966 19.5879 0 19.3176 0 18.7561V2.3913ZM4.57241 16.552C7.42759 16.552 9.16552 15.3251 9.16552 11C9.16552 6.67485 7.42759 5.40642 4.57241 5.40642H3.22759V16.552H4.57241Z" fill="#FF7C03"/>
<path d="M18.1655 20.7316C17.8966 21.7089 17.5035 22 16.3862 22H14.1931L20.8552 0H23.6069C24.0207 0 24.2276 0.291115 24.1035 0.727788L18.1655 20.7316Z" fill="#FF7C03"/>
<path d="M30.0827 19.5671L25.531 2.3913H28.1793C28.7793 2.3913 29.0896 2.64082 29.2138 3.16067L32.3172 15.2004C33.6827 11.4575 35.0482 7.04914 35.8965 2.3913H38.4207C39 2.3913 39.2482 2.76559 39.1241 3.38941C38.3379 7.73534 37.1379 12.4348 34.7379 18.4026C34.3862 19.276 34.0138 19.5671 33.0827 19.5671H30.1034H30.0827Z" fill="#FF7C03"/>
<path d="M43.2 2.3913C43.7793 2.3913 44.0896 2.66162 44.0896 3.24385V17.6125C44.0896 18.9641 43.6345 19.5879 41.7724 19.5879H40.8621V2.3913H43.2Z" fill="#FF7C03"/>
<path d="M46.6965 2.3913H51.4758C56.7103 2.3913 59.2138 5.19848 59.2138 11C59.2138 16.8015 56.7103 19.5879 51.4758 19.5879H47.5655C46.9655 19.5879 46.6965 19.3176 46.6965 18.7561V2.3913ZM51.2689 16.552C54.1241 16.552 55.8621 15.3251 55.8621 11C55.8621 6.67485 54.1241 5.40642 51.2689 5.40642H49.9241V16.552H51.2689Z" fill="#FF7C03"/>
<path d="M71.0483 16.552C71.6276 16.552 71.9173 16.8015 71.9173 17.3837V19.5879H62.2552C61.6759 19.5879 61.3862 19.3176 61.3862 18.7353V2.3913H70.8C71.3793 2.3913 71.6897 2.66162 71.6897 3.24385V5.40642H64.6138V9.12854H70.3242C70.9035 9.12854 71.2138 9.37806 71.2138 9.96029V12.0813H64.6138V14.7221C64.6138 15.4915 64.6138 16.0737 64.5931 16.5728H71.0483V16.552Z" fill="#FF7C03"/>
<path d="M96.5173 15.6371C97.0966 15.6371 97.3656 15.9074 97.3656 16.4688V18.3819H79.8414C79.2621 18.3819 78.9932 18.1115 78.9932 17.5501V15.6371H86.3794V12.7675C83.9173 12.4764 82.4276 11.4991 82.0139 9.81475C81.6001 8.17203 81.7242 5.03214 82.2621 2.70322H93.7035C94.2414 2.70322 94.5518 2.97354 94.5518 3.53497V11.5199C93.1449 12.2476 91.5311 12.6219 89.9587 12.7883V15.6371H96.5173ZM84.9518 5.38564C84.6208 8.98299 85.1587 9.79395 87.2897 10.1059C88.5725 10.2514 90.1656 10.2098 91.6139 9.77316V5.38564H84.9725H84.9518Z" fill="#FF7C03"/>
<path d="M104.565 8.40075C103.924 9.19092 103.179 9.89791 102.393 10.4386C101.565 10.9584 100.924 11.0832 100.324 10.896C99.6827 10.6465 99.2275 9.98109 99.2275 9.29489C101.441 7.92249 103.241 6.03024 103.324 4.24196H100.655C100.076 4.24196 99.8069 3.97164 99.8069 3.4102V1.62192H108.91C109.49 1.62192 109.759 1.89224 109.759 2.45368V4.24196H106.283C106.262 4.7826 106.159 5.34404 105.952 5.88468L109.221 8.02646C109.986 8.50472 110.297 9.14933 110.069 9.77315C109.862 10.293 109.407 10.7921 108.786 10.9376L104.565 8.40075ZM113.876 12.414C114.455 12.414 114.703 12.6843 114.703 13.2041V19.8582C113.214 21.0851 109.986 21.6881 106.841 21.3762C104.276 21.1266 102.786 20.1285 102.29 18.4234C101.897 17.051 102 14.3894 102.29 12.3932H104.441C104.979 12.3932 105.165 12.6427 105.103 13.1418C105.083 13.5161 105.083 13.9111 105.062 14.3478H111.683V12.3932H113.876V12.414ZM111.683 18.3818V16.8431H105.165V17.0926C105.29 18.0699 105.89 18.5482 107.11 18.7561C108.6 18.9849 110.565 18.8393 111.703 18.3818H111.683ZM115.117 7.5482C115.117 8.67107 115.159 9.44044 115.014 10.1266C114.786 11.1663 113.876 11.5406 111.931 11.3535V0.62381H114.269C114.848 0.62381 115.117 0.894131 115.117 1.45557V7.5482Z" fill="#FF7C03"/>
<path d="M135.745 7.52742C136.324 7.52742 136.593 7.79774 136.593 8.35918V10.3554H119.069C118.49 10.3554 118.221 10.0851 118.221 9.52364V7.52742H130.779V4.1588H121.924C121.428 4.1588 121.179 3.93007 121.179 3.43101V1.414H133.055C133.531 1.4348 133.759 1.66353 133.759 2.14179V3.55578C133.759 4.03404 133.779 6.13423 133.738 7.52742H135.745ZM134.09 19.3176V21.0435C130.759 21.5218 126.724 21.6257 124.283 21.1683C122.648 20.8771 121.655 20.2741 121.283 19.2968C120.931 18.3819 120.91 16.7807 121.262 15.4083H130.634V14.2855H122.255C121.49 14.2855 121.055 13.9112 121.055 13.2458V11.8318H132.786C133.324 11.8318 133.552 12.0813 133.552 12.5804V16.7807C133.552 17.363 133.262 17.6541 132.641 17.6541H123.952C123.931 18.2987 124.179 18.569 124.903 18.7354C126.269 19.0057 130.531 18.9641 133.138 18.7354C133.759 18.6938 134.09 18.9017 134.09 19.3592V19.3176Z" fill="#FF7C03"/>
<path d="M148.779 9.02457C148.179 9.91871 147.497 10.7505 146.752 11.3951C146.007 11.9981 145.386 12.1645 144.766 12.0189C144.103 11.811 143.566 11.1871 143.483 10.5633C145.697 8.73345 147.435 6.42532 147.476 4.30434H144.952C144.372 4.30434 144.103 4.03402 144.103 3.47258V1.64271H152.959C153.538 1.64271 153.786 1.91303 153.786 2.47447V4.32513H150.414C150.414 4.96975 150.29 5.65595 150.083 6.30056L153.414 9.17012C154.159 9.75235 154.386 10.397 154.117 11C153.869 11.5198 153.331 11.9565 152.648 12.0813L148.8 9.06615L148.779 9.02457ZM158.835 16.1777C158.835 16.9471 158.917 19.1304 158.731 20.1701C158.566 21.2098 157.572 21.6257 155.752 21.397V16.552H147.041C146.462 16.552 146.193 16.2817 146.193 15.7202V13.8072H157.986C158.566 13.8072 158.835 14.0775 158.835 14.6389V16.1777ZM158.979 8.52551V9.04536C158.979 10.1682 159.021 10.9376 158.876 11.6238C158.648 12.6635 157.759 13.0378 155.855 12.8507V0.62381H158.131C158.71 0.62381 158.979 0.894131 158.979 1.45557V5.40642C160.945 5.05292 161.607 5.32324 161.917 6.07183C162.166 6.73723 162.062 7.79772 161.586 8.54631H158.979V8.52551Z" fill="#FF7C03"/>
<path d="M169.117 8.60869C168.579 9.64838 167.959 10.5841 167.338 11.3119C166.572 12.0605 165.993 12.1852 165.352 12.0397C164.648 11.8941 164.069 11.3119 163.841 10.6465C166.303 8.19281 167.752 5.30245 167.752 2.66162V1.49716H169.986C170.462 1.49716 170.71 1.76748 170.71 2.26653V2.99432C170.71 3.7637 170.607 4.57466 170.421 5.34404L173.669 9.14933C174.269 9.73156 174.372 10.3762 174.083 10.9376C173.814 11.5406 173.172 11.8941 172.428 12.0397L169.138 8.60869H169.117ZM179.979 17.6125C179.979 19.9622 177.91 21.5841 173.462 21.5841C169.014 21.5841 166.945 19.9622 166.945 17.6125C166.945 15.2628 169.035 13.2249 173.462 13.2249C177.89 13.2249 179.979 15.242 179.979 17.6125ZM176.772 17.4045C176.772 16.5104 175.738 15.7618 173.441 15.7618C171.145 15.7618 170.11 16.5104 170.11 17.4045C170.11 18.2987 170.979 18.8809 173.441 18.8809C175.903 18.8809 176.772 18.2987 176.772 17.4045ZM176.524 7.50661C173.772 7.71455 173.172 7.40264 172.883 6.86199C172.635 6.40453 172.655 5.40642 172.966 4.72022H176.545V0.62381H178.821C179.4 0.62381 179.669 0.894131 179.669 1.45557V9.06615C179.669 10.189 179.71 10.9584 179.566 11.6446C179.338 12.6843 178.448 13.0586 176.545 12.8714V7.50661H176.524Z" fill="#FF7C03"/>
</svg>
