<svg width="77" height="71" viewBox="0 0 77 71" fill="none" xmlns="http://www.w3.org/2000/svg">
<rect width="77" height="71" rx="13" fill="#B0B0B0"/>
<path d="M38.7397 34.4062C39.5317 34.4062 40.1788 35.0011 40.1788 35.7343C40.1788 36.4675 39.5342 37.0624 38.7397 37.0624C37.9453 37.0624 37.3032 36.4675 37.3032 35.7343C37.3032 35.0011 37.9478 34.4062 38.7423 34.4062H38.7397ZM38.7423 30.9476C35.8791 30.9476 33.5557 33.0896 33.5557 35.7343C33.5557 38.3789 35.8766 40.5209 38.7397 40.5209C41.6029 40.5209 43.9263 38.3789 43.9263 35.7343C43.9263 33.0919 41.6054 30.9476 38.7397 30.9476H38.7423Z" fill="#EEEEEE"/>
<path d="M49.2477 29.3614C50.0996 29.3614 50.7917 30.0001 50.7917 30.7863V40.491C50.7917 41.2773 50.0996 41.916 49.2477 41.916H26.7475V30.7863C26.7475 30.0001 27.4396 29.3614 28.2915 29.3614H49.2477ZM49.2477 25.9028H28.2915C25.3684 25.9028 23 28.0886 23 30.7863V45.3745H49.2477C52.1708 45.3745 54.5392 43.1887 54.5392 40.491V30.7863C54.5392 28.0886 52.1708 25.9028 49.2477 25.9028Z" fill="#EEEEEE"/>
<path d="M49.4149 23H45.3001C44.4874 23 43.8286 23.608 43.8286 24.358V26.5416C43.8286 27.2916 44.4874 27.8996 45.3001 27.8996H49.4149C50.2276 27.8996 50.8865 27.2916 50.8865 26.5416V24.358C50.8865 23.608 50.2276 23 49.4149 23Z" fill="#EEEEEE"/>
</svg>
